<?xml version="1.0" encoding="utf-8"?>
<!-- Generator: Adobe Illustrator 21.0.0, SVG Export Plug-In . SVG Version: 6.00 Build 0)  -->
<svg version="1.1" id="Layer_1" xmlns="http://www.w3.org/2000/svg" xmlns:xlink="http://www.w3.org/1999/xlink" x="0px" y="0px"
	 viewBox="0 0 283.5 283.5" style="enable-background:new 0 0 283.5 283.5;" xml:space="preserve">
<style type="text/css">
	.st0{fill:#EC660B;}
	.st1{fill:none;stroke:#EC6608;stroke-miterlimit:10;}
	.st2{fill:#FFFFFF;stroke:#FFFFFF;stroke-miterlimit:10;}
	.st3{fill:#FFFFFF;stroke:#EC6608;stroke-miterlimit:10;}
</style>
<title>application</title>
<g>
	<path class="st0" d="M0,66C0,29.7,29.7,0,66,0h151.5c36.3,0,66,29.7,66,66v151.5c0,36.3-29.7,66-66,66H66c-36.3,0-66-29.7-66-66V66
		z"/>
	<path class="st1" d="M0,66C0,29.7,29.7,0,66,0h151.5c36.3,0,66,29.7,66,66v151.5c0,36.3-29.7,66-66,66H66c-36.3,0-66-29.7-66-66V66
		z"/>
</g>
<path class="st2" d="M88,205.1c0-0.4,0-0.9,0-1.3c0-0.4,0.1-0.8,0.1-1.2c0-0.2-0.1-0.4-0.1-0.6c0-0.2,0-0.3-0.1-0.5
	c-0.1-0.1-0.2-0.3-0.3-0.4c-0.2-0.2-0.4-0.5-0.5-0.7c-0.1-0.2-0.1-0.3-0.1-0.5c-0.1-0.2-0.1-0.3-0.2-0.5c-0.1-0.2-0.3-0.4-0.5-0.6
	l-0.5-0.5c-0.3-0.3-0.6-0.7-0.8-1.1c-0.2-0.8-0.6-1.5-1.1-2.1c-0.2-0.2-0.3-0.5-0.4-0.7c0-0.1-0.1-0.2-0.2-0.3l0,0
	c-0.5-0.4-1.1-0.7-1.6-1c-0.2-0.1-0.5-0.3-0.7-0.5c-0.2-0.2-0.4-0.3-0.5-0.6c-0.2-0.3-0.4-0.5-0.6-0.8s-0.4-0.6-0.6-1
	s-0.3-0.4-0.4-0.6c-0.1-0.2-0.2-0.4-0.3-0.6c-0.4-0.4-0.9-0.6-1.4-0.5c-0.6,0.1-1.1-0.2-1.4-0.7c-0.1-0.3-0.3-0.7-0.3-1
	c-0.2-0.4-0.5-0.6-0.8-0.8c-0.5-0.4-1.1-0.8-1.6-1.2c-0.5-0.4-0.9-1-1.2-1.6c-0.2-0.3-0.3-0.7-0.5-1c-0.2-0.3-0.5-0.6-0.8-0.8
	c-0.3-0.3-0.5-0.6-0.7-1c-0.2-0.5-0.6-0.9-1.1-1.2c-0.2-0.2-0.5-0.3-0.8-0.5c-0.7-0.4-1.4-0.9-2.1-1.3c-0.3-0.2-0.6-0.3-0.9-0.4
	c-0.3-0.1-0.5-0.3-0.8-0.5c-0.3-0.1-0.7-0.2-1-0.4c-0.3-0.2-0.6-0.5-0.9-0.7c-0.5-0.4-1.1-0.7-1.7-0.9c-0.5-0.1-0.9-0.4-1.3-0.7
	c-0.2-0.2-0.4-0.5-0.5-0.8c-0.1-0.6-0.1-1.3,0-1.9c0-0.4,0.2-0.9-0.1-1.2c-0.2-0.2-0.5-0.3-0.7-0.4c-0.3-0.2-0.5-0.4-0.8-0.5
	c-0.5-0.1-0.9-0.3-1.3-0.5c-0.6-0.3-1.4-0.5-2.1-0.4c-0.4,0-0.4,0.5-0.5,0.8c-0.1,0.1-0.1,0.3-0.3,0.4c-0.3,0.2-0.5-0.1-0.7-0.3
	s-0.2-0.2-0.4-0.2c-0.3-0.2-0.7-0.5-0.6-1s0.6-0.6,0.9-0.8c0.2-0.1,0.3-0.1,0.5-0.2c0.3-0.1,0.5-0.4,0.6-0.7
	c0.2-0.8,0.1-1.5-0.1-2.3c-0.3-0.5-0.4-1-0.5-1.6l0,0c0-0.5,0-0.9,0.1-1.4c0.2-0.5,0.4-0.9,0.6-1.3c0.3-0.5,0.5-1.1,0.5-1.7
	c0.1-0.6,0-1.1-0.2-1.6c-0.2-0.5-0.5-1-0.7-1.6c-0.1-0.7-0.4-1.3-0.8-1.8c-0.5-0.4-1.1-0.8-1.8-1.1c-0.5-0.3-1-0.8-1.5-1.2
	c-0.3-0.5-0.5-1-0.4-1.6c-0.1-0.5-0.2-0.9-0.2-1.4c0-0.3,0.2-0.5,0.5-0.6c0.7-0.3,0.7-0.9,0.7-1.6c0-0.6,0-1.2,0-1.8
	c-0.1-0.4-0.2-0.8-0.3-1.2c0-0.4-0.1-0.8-0.3-1.2c-0.2-0.3-0.4-0.6-0.7-0.9c-0.3-0.5-0.4-1.1-0.3-1.7c0-0.3,0.1-0.6,0.2-0.9
	c0.2-0.2,0.2-0.5,0.2-0.8c0-0.5-0.2-1.2,0.1-1.6c0.2-0.3,0.7-0.4,0.9-0.7c0.3-0.5,0.1-1.2,0.1-1.7s0.1-0.5,0.4-0.8
	c0.5-0.6,0.4-1.4,0.7-2l0,0c0.4-0.9,0.3-2-0.1-2.9c-0.1-0.3,0-0.6,0.1-0.9c0.1-0.3,0.1-0.7,0.1-1.1c0-0.5,0-1-0.1-1.5l0,0
	c-0.2-0.9-0.5-1.8-0.9-2.6c-0.2-0.4-0.4-0.8-0.6-1.3c-0.2-0.4-0.4-0.7-0.6-1.1c0-0.2-0.1-0.3-0.2-0.5c-0.5-0.8-0.8-1.8-0.9-2.8
	c-0.2-0.7-0.4-1.5-0.6-2.2c-0.2-0.6-0.4-1.2-0.4-1.9c0-0.5-0.2-1-0.3-1.5c0-1,0.3-2.1,0.8-2.9c0.3-0.6,0.1-1.3,0.6-1.8
	c0.2-0.2,0.5-0.4,0.7-0.6c0.7-0.4,1.1-1.1,1.2-1.9c0-0.3,0.1-0.6,0.2-0.9c0.2-0.3,0.5-0.6,0.7-0.9c0.2-0.3,0.4-0.5,0.7-0.6
	c0.3,0,0.5-0.1,0.8-0.1c0.5-0.2,0.6-0.8,1-1.1c0.3-0.4,0.8-0.6,1.3-0.8c0.5,0,0.9-0.1,1.2-0.4l0.7-0.7c0.2-0.3,0.3-0.6,0.3-1
	c0.1-0.4,0.4-0.9,0.7-1.2c0.2-0.3,0.6-0.7,0.5-1.2c-0.1,0-0.3-0.1-0.4-0.2c-0.2,0-0.3-0.1-0.5-0.1c-0.3-0.2-0.2-0.6-0.3-0.9
	c0-0.2,0-0.4-0.1-0.6c-0.2-0.3-0.2,0.1-0.3,0.3s-0.1,0.3-0.3,0.3S55.2,92,55,91.8s-0.3-0.6-0.6-0.8s-0.6-0.2-0.9-0.4s0-0.4,0.2-0.6
	l0,0c0.5-0.4,0.4-0.8,0.4-1.4c-0.1-0.5,0-1,0.1-1.5c0.6-0.1,1.1,0.6,1.3,1.1c0,0.1,0.1,0.2,0.1,0.1c0-0.2,0-0.3,0.1-0.5
	c0-0.4-0.1-1.1,0.1-1.4s0.5,0,0.6-0.3s0.1-0.7,0.5-0.4c0.2,0.2,0.3,0.4,0.4,0.6c0.2,0.3,0.6,0.3,0.9,0.4s0.2,0.2,0.4,0.3
	s0.3,0,0.5-0.1c0.2-0.1,0.4-0.1,0.6,0.1c0.2,0.1,0.2,0.2,0.3,0.4c0,0.2,0.1,0.4,0.2,0.5c0.2,0.2,0.4,0.5,0.5,0.7
	c0.1,0.1,0.1,0.3,0.1,0.4c0,0.2-0.3,0.3-0.3,0.4c-0.1,0.2-0.1,0.4-0.1,0.6l0,0c0,0.5,0.2,0.6,0.6,0.7s0.5,0.4,0.8,0.6
	s0.7,0.2,1.1,0.4c0.2,0.2,0.5,0.3,0.9,0.3c0.3-0.1,0.7-0.2,1-0.4l0.4-0.1c0.2-0.1,0.2-0.2,0.3-0.4s0.5-0.1,0.8-0.3s0.4-0.4,0.6-0.1
	s0.3,0.5,0.7,0.3c0.3-0.3,0.6-0.4,1-0.5c0.8,0.1,1.7,0,2.5-0.2c0.2-0.1,0.3-0.2,0.5-0.3c0.3-0.1,0.5-0.1,0.8,0
	c0.3,0,0.6,0.1,0.9,0.2c0.2,0.1,0.4,0.2,0.6,0.1c0.3-0.1,0.5-0.2,0.7-0.2c0.3,0,0.6,0,0.8,0c0.5,0,1,0,1.5,0.2
	c0.2,0.1,0.5,0.1,0.7,0.1c0.2,0,0.5,0.1,0.7,0.2c0.3,0.1,0.6,0.1,0.9,0.1c0.2,0,0.4-0.1,0.7-0.1c0.2,0,0.3,0,0.5,0
	c0.3,0,0.4-0.3,0.5-0.5c0.4-0.7,1.3-0.5,2-0.4c0.3,0.1,0.6,0.2,0.9,0.3c0.3,0.2,0.7,0.2,1,0.3c0.2,0.1,0.4,0.2,0.6,0.2h2.3
	c0.1,0,0.3,0,0.4-0.1c0.3-0.2,0.7-0.3,1.1-0.2c0.4,0.1,0.7,0.3,1.1,0.4c0.5,0.1,0.9,0.1,1.4,0.1c0.4,0,0.9-0.1,1.3-0.2
	c0.2,0,0.4-0.1,0.6-0.2c0.5-0.2,1-0.5,1.5-0.6c0.5-0.2,1.1-0.3,1.7-0.3c0.6-0.1,1.1-0.2,1.6-0.4c0.7-0.2,1.4-0.3,2.1-0.4
	c0.2,0,0.4,0.1,0.6,0.1s0.4-0.2,0.6-0.2c0.4-0.1,0.9-0.1,1.3,0c0.4-0.1,0.8-0.3,1.2-0.5c0.3-0.1,0.7-0.2,1-0.4
	c0.2-0.1,0.3-0.1,0.5-0.1c0.2,0,0.5,0,0.7-0.1c0.2-0.1,0.3-0.3,0.4-0.5c0.2-0.4,0.3-0.8,0.5-1.2c0.3-0.4,0.8-0.5,1.2-0.3
	c0,0,0,0,0,0l0.1,0.1c0.4,0.3,0.5,0.8,1.1,0.5c0.1,0,0.1-0.1,0.2-0.1c0.2-0.1,0.3,0,0.5-0.1c0.2-0.1,0.5-0.3,0.7-0.4
	c0.3-0.1,0.6-0.1,0.9-0.2s0.6-0.3,0.9-0.4c0.1-0.1,0.2-0.2,0.4-0.2c0.2-0.1,0.3,0,0.5-0.1c0.3-0.1,0.5-0.5,0.8-0.7s0.9-1.1,1.2-0.9
	c0.2,0.1,0.2,0.2,0.3,0.4c0.1,0.1,0.2,0.2,0.4,0.2h0.7c0.6,0.1,1.1,0.5,1.8,0.2s1.4-0.4,2.1-0.7s1.4-0.5,2.1-0.8
	c0.3-0.2,0.6-0.4,0.9-0.6c0.3-0.2,0.6-0.4,1-0.5c0.5-0.2,1-0.4,1.6-0.7c0.5-0.2,1-0.4,1.4-0.7c0.3-0.1,0.6-0.3,0.9-0.5
	c0.2-0.2,0.3-0.3,0.5-0.5s0.2-0.6,0.2-1c0-0.6,0-1.2,0.1-1.8c0.1-0.3,0.4-0.5,0.5-0.8c0-0.2,0.1-0.4,0.1-0.6c0-0.3,0.1-0.5,0.1-0.8
	c0-0.3,0.3-0.5,0.4-0.9c0-0.1,0-0.3,0-0.4c0-0.2,0-0.3-0.1-0.5c-0.1-0.2-0.1-0.3-0.1-0.5l0,0c0-0.4-0.1-0.9-0.1-1.3
	c-0.1-0.3-0.2-0.7-0.3-1.1c0.1-0.4,0.1-0.8,0.1-1.1c0-0.4-0.4-0.6-0.4-1.1s-0.2-0.7,0.2-1c0.1-0.1,0.3-0.2,0.4-0.3
	c0.2-0.1,0.3,0,0.3-0.3s-0.2-0.9,0.1-1.1s0.4,0.3,0.5,0.4s0.5,0.6,0.8,0.6c0.5,0.1,0.7-0.2,1.1-0.5c0.3-0.2,0.6-0.3,1-0.3
	c0.1,0,1.1-0.2,1.1-0.1c0.1,0.4,0,0.8,0.4,1.1c0.2,0.1,0.4,0.1,0.5,0.2s0.2,0.7,0.2,1c0,0.5,0.2,0.5,0.6,0.7
	c0.2,0.1,0.4,0.2,0.6,0.2c0.3,0,0.5-0.1,0.6,0.2c0,0.5,0.1,1,0.2,1.4c0.1,0.2,0.2,0.4,0.3,0.6c0.1,0.2,0.2,0.4,0.3,0.6
	c0.2,0.2,0.6,0.6,0.2,0.8s-1.4,0.4-0.9,0.9c0.1,0.1,0.2,0.1,0.2,0.2c0.1,0.1,0.2,0.3,0.3,0.4c0.2,0.3,0.5,0.4,0.9,0.4
	c0.5,0,0.8,0.3,1.2,0.6c0.3,0.1,0.6,0.3,0.9,0.3c0.3,0.1,0.6,0.3,0.8,0.5c0.2,0.2,0.4,0.4,0.7,0.5s0.6,0,1,0.1
	c0.7,0.1,1.3,0.3,1.9,0.6c1.7,0.7,3.5,0.3,5.3,0.6c0.9,0.1,1.7,0.1,2.6,0c0.6-0.1,1.1-0.3,1.7-0.4c0.4,0,0.8-0.1,1.2-0.1
	s0.7,0.1,1,0.1c0.8,0,1.6-0.1,2.4-0.3c1-0.1,1.9,0,2.9-0.2c0.2-0.1,0.4-0.1,0.6-0.2c0.2-0.1,0.5-0.1,0.7-0.2
	c0.4-0.2,0.8-0.3,1.3-0.4c0.5-0.1,0.9,0,1.4-0.1c0.5-0.1,1-0.1,1.5-0.2c0.5,0,1.1-0.3,1.6-0.1s1.1,0.3,1.6,0.5
	c0.5,0.1,1,0.4,1.4,0.6c0.4,0.2,0.8,0.4,1.2,0.5c0.9,0.1,1.7,0.1,2.3,0.8c0.3,0.3,0.6,0.6,1.1,0.7c0.6,0.2,1.1,0.5,1.5,1
	c0.2,0.3,0.4,0.6,0.7,0.8c0.6,0.4,1.1,0.9,1.6,1.3c0.6,0.4,1.2,0.9,1.7,1.4c0.5,0.5,1,1,1.6,1.4c0.3,0.2,0.5,0.4,0.8,0.6
	c0.3,0.2,0.7,0.4,1.1,0.5c0.6,0.2,1.2,0.6,1.7,1.1c0.6,0.4,1.2,0.8,1.9,1.1c1.1,0.7,2.4,1.2,3.6,1.9c0.6,0.4,1.2,0.9,1.9,1.2
	c1.1,0.4,2.2,0.3,3.3,0.6c0.8,0.3,1.7,0.5,2.6,0.7c0.9,0.1,1.7,0.4,2.6,0.6c0.4,0.1,0.9,0.1,1.3,0.3c0.4,0.1,0.8,0.3,1.1,0.6
	c0.7,0.5,1.4,1.1,2.1,1.6s1.4,0.8,2.1,1.3c0.6,0.4,1.2,0.9,1.7,1.5c0.5,0.5,1,1.1,1.4,1.7l1.3,1.9c0.5,0.9,1.2,1.8,2,2.4
	c0.6,0.4,1.2,0.7,1.8,1.1c0.4,0.4,0.8,0.9,1,1.4c0.3,0.4,0.7,0.8,0.9,1.2s0.3,1,0.5,1.5c0.2,0.6,0.6,1.1,0.9,1.6
	c0.4,0.4,0.7,0.8,1,1.3c0.1,0.2,0.2,0.5,0.4,0.7c0.1,0.2,0.3,0.4,0.4,0.7c0.1,0.4,0.4,0.8,0.8,1.1c0.5,0.2,0.9,0.5,1.3,0.9
	c0.3,0.5,0.6,0.9,1.1,1.3c0.4,0.3,0.8,0.7,1.1,1.1c0.3,0.4,0.7,0.6,1.1,0.8c0.4,0.1,1,0,1.4,0.3l0,0c0.3,0.2,0.3,0.6,0.4,0.9l0,0
	c0.1,0.7,0.2,1.3,0.4,2c0,0.3,0,0.6,0,0.9c0,0.3,0.1,0.6,0.3,0.9c0.3,0.5,0.4,1.1,0.5,1.7c0,0.6,0,1.2,0.2,1.8
	c0.3,0.5,0.5,1.1,0.6,1.7c0,0.6,0.2,1.2,0.4,1.7c0.3,0.5,0.4,1.1,0.7,1.7s0.5,1.1,0.8,1.6s0.6,1.2,0.9,1.8c0.5,1.1,0.9,2.2,1.1,3.4
	c0,0.4,0.1,0.9,0.1,1.3c0.1,0.4,0.2,0.8,0.2,1.3c0,0.4,0.1,0.9,0.1,1.3c-0.1,0.8-0.4,1.6-0.8,2.3c-0.2,0.8-0.6,1.5-0.8,2.3
	c-0.4,1.2-0.7,2.5-1.2,3.7c-0.4,1-0.4,2-0.8,3c-0.2,0.4-0.3,0.9-0.5,1.3s-0.5,0.7-0.7,1.1c-0.2,0.4-0.4,0.9-0.5,1.3
	c-0.1,0.4-0.1,0.8-0.2,1.2c-0.1,0.4-0.2,0.8-0.4,1.2c-0.6,1.3-1.1,2.6-1.4,3.9c0,0.5-0.1,1-0.1,1.4c-0.1,0.2-0.2,0.5-0.4,0.7
	c-0.2,0.6-0.4,1.2-0.5,1.8c-0.2,0.6-0.4,1.1-0.7,1.7c-0.2,0.2-0.3,0.5-0.4,0.8c-0.1,0.3-0.1,0.5-0.2,0.8c-0.2,0.5-0.5,1-0.8,1.4
	c-0.3,0.5-0.6,1.1-0.9,1.6c-0.3,0.5-0.5,1.1-0.7,1.6c-0.2,0.6-0.2,1.2-0.1,1.8c0.2,0.6,0.4,1.2,0.7,1.7c0.1,0.5-0.1,0.9-0.4,1.2
	c-0.4,0.3-0.7,0.7-1,1.1c-0.3,0.3-0.7,0.6-1.2,0.8c-0.4,0.3-0.8,0.6-1.2,1c-0.4,0.5-1,0.9-1.3,1.4c-0.1,0.3-0.2,0.5-0.4,0.7
	c-0.3,0.1-0.5,0.3-0.7,0.5c-0.3,0.5-0.6,1-0.7,1.6c-0.1,0.3-0.3,0.6-0.6,0.9c-0.4,0.5-0.7,1-1.1,1.5c-0.4,0.4-0.7,0.9-1,1.4
	c-0.3,0.5-0.7,0.8-1.2,1.1c-0.2,0.1-0.5,0.3-0.7,0.4c-0.3,0.1-0.5,0.3-0.8,0.4c-0.7,0.3-1.5,0.3-2.2,0.5c-0.4,0.1-0.7,0.2-1.1,0.2
	c-0.3-0.1-0.7-0.2-1-0.4c-0.9-0.3-1.9-0.3-2.7,0c-0.5,0.1-1,0.1-1.4,0.2c-0.4,0.2-0.7,0.4-1,0.6c-0.4,0.3-0.7,0.6-1.1,0.9
	c-0.8,0.5-1.7,0.7-2.7,0.7c-1,0-1.9,0.3-2.9,0.3c-0.6,0-1.2-0.1-1.8-0.1c-0.5,0.1-1.1,0.2-1.6,0.3c-0.6,0.1-1.2,0.1-1.8,0.1
	c-1.2,0.1-1.9,1-3,1.3c-0.5,0.1-1.1,0.2-1.6,0.2c-0.6,0-1.1-0.3-1.6-0.3c-0.7,0-1.4,0-2.1-0.1c-0.7-0.1-1.4-0.4-2.2-0.4
	c-0.5-0.1-1-0.2-1.6-0.2c-0.6,0-1.1,0-1.7,0c-0.6,0.1-1.1,0.2-1.7,0.4c-0.3,0.1-0.7,0.1-1,0.1c-0.4,0-0.8,0.1-1.2,0.1
	c-0.8,0.1-1.5,0.2-2.2,0.5c-0.3,0.2-0.6,0.3-0.9,0.4c-0.3,0-0.7,0-1,0c-0.3,0.1-0.7,0.1-1,0.2c-0.3,0-0.7,0-1,0.1
	c-0.6,0.2-1.1,0.4-1.7,0.6c-0.3,0.1-0.6,0-0.9-0.1c-0.4-0.2-0.6,0-0.9,0c-0.3,0-0.7,0-1-0.1c-0.4,0-0.7-0.1-1.1-0.2
	c-0.3-0.1-0.6-0.3-1-0.4s-0.7-0.2-1-0.3c-0.7-0.2-1.4-0.5-2.1-0.8c-0.7-0.2-1.4-0.5-2.1-0.6c-0.9-0.2-1.7-0.4-2.6-0.5
	c-0.5-0.1-0.9-0.2-1.4-0.3c-0.9-0.1-1.8-0.4-2.7-0.4s-2-0.4-2.8,0.1c-0.4,0.2-0.6,0.5-1,0.5c-0.7-0.1-1.3-0.1-2-0.1
	c-0.4,0.1-0.8,0.3-1.1,0.4c-0.3,0.1-0.5,0.2-0.8,0.3c-0.5,0.3-0.9,0.6-1.4,0.8c-0.3,0.1-0.5,0.2-0.8,0.3c-0.2,0.1-0.5,0.3-0.7,0.4
	c-0.6,0.3-1.1,0.5-1.7,0.7c-1.2,0.4-2.3,0.8-3.4,1.4c-1,0.6-2,1.2-3.1,1.8c-0.5,0.2-1.1,0.5-1.7,0.6c-0.5,0.1-0.9,0.2-1.4,0.2
	c-0.5,0-0.9,0.1-1.4,0.3c-0.2,0.1-0.4,0.2-0.6,0.2c-0.2,0-0.3-0.2-0.4-0.2c-0.4-0.1-0.7-0.1-1.1,0c-0.3,0.1-0.4,0.4-0.6,0.6l0,0
	c-0.4,0.4-1.1-0.1-1.6-0.1c-0.5,0-0.9,0.1-1.3,0.3c-0.2,0.1-0.4,0.2-0.6,0.3c-0.2,0-0.4,0.1-0.5,0.2c-0.3,0.2-0.6,0.3-0.8,0.6
	c-0.2,0.3-0.5,0.5-0.8,0.6c-0.4,0.2-0.8,0.4-1.1,0.6c-0.8,0.4-1.6,1-2.2,1.7c-0.1,0.2-0.3,0.3-0.5,0.4c-0.2,0.1-0.4,0.1-0.6,0.2
	s-0.3,0.2-0.5,0.3c-0.2,0.1-0.4,0.1-0.7,0.1c-0.5,0-1,0.1-1.4,0.2c-0.5,0.1-1,0.1-1.4,0.2c-0.4,0-0.9,0.1-1.3,0.4
	c-0.3,0.2-0.2,0.7-0.5,1s-0.8-0.1-1.1-0.3c-0.6-0.4-1.4-0.6-2.1-0.6c-0.2,0-0.5-0.1-0.7-0.1c-0.5-0.1-1.1-0.2-1.6-0.2
	c-0.5,0-1,0-1.4,0c-0.2,0-0.4,0.1-0.6,0.1s-0.4,0-0.7,0s-0.5,0-0.7,0.1c-0.4,0-0.8,0-1.1,0h-0.6c-0.2,0-0.4,0.1-0.5,0.1
	c-0.4,0.1-0.7,0.1-1.1,0.1c-0.2,0-0.4,0-0.6-0.1c-0.3,0-0.6,0.2-1,0.2s-0.6-0.3-0.8-0.4c-0.6-0.4-1.3-0.3-1.9-0.5
	c-0.3-0.1-0.4-0.3-0.7-0.5c-0.1-0.1-0.2-0.1-0.3-0.1c-0.2,0-0.2,0.1-0.4,0.2s-0.5,0.2-0.7,0s-0.2-0.3-0.3-0.4
	c-0.3-0.4-0.2-1-0.5-1.4c-0.3-0.4-0.5-0.9-0.7-1.4"/>
<path class="st2" d="M83.5,215.5L83.5,215.5l-0.2-0.2l-0.2-0.1c-0.1-0.1-0.1-0.1-0.2-0.2l-0.1-0.1h-0.1h-0.1h-0.1l-0.1-0.1h-0.2
	h-0.2c-0.1,0-0.3,0-0.4,0c-0.1,0-0.1,0.1-0.2,0.1s-0.1,0-0.2,0.1c0,0.1-0.1,0.1-0.1,0.1l-0.1,0.1v0.1c-0.1,0.1-0.1,0.2-0.2,0.3
	c0,0-0.1,0.1-0.1,0.1l-0.2,0.1l-0.3,0.2c-0.1,0.1-0.5,0.1-0.4,0.4c0,0.1,0,0.2,0,0.4c0,0.1-0.1,0.1-0.1,0.1c-0.1,0,0,0,0,0l-0.1,0.1
	l-0.1,0.1l-0.1,0.1h-0.7c0,0-0.1,0-0.1,0.1v0.1l0,0h-0.1h-0.1c0,0,0,0.1,0.1,0.1H79c0.1,0,0.1,0.1,0.1,0.2c0,0.1,0,0.1,0,0.2
	c0,0-0.1,0.1-0.1,0.1l-0.1,0.1h-0.2l-0.1,0.1l-0.1,0.1c0,0-0.1,0.1-0.1,0.1c0,0,0,0.1,0,0.1c0,0,0,0.1,0,0.1c0,0,0,0.1,0.1,0.1
	c0,0,0.1,0.1,0.1,0.1c0.2,0,0.4-0.3,0.6-0.2c0.1,0,0.1,0.1,0.1,0.2c0,0,0,0.1,0,0.1c0,0,0,0.1-0.1,0.1c-0.1,0.1-0.1,0.2-0.1,0.2
	c0,0.2,0.1,0.2,0.2,0.3c0.1,0,0.2,0,0.2,0l0.1-0.1l0.1-0.1l0.2-0.2l0.1-0.1c0.1-0.1,0.1-0.2,0.2-0.2l0.1-0.1c0,0,0.2-0.2,0.3-0.1
	s0,0.1,0,0.2s0.1,0.1,0.1,0.1c0.1,0.1,0.2,0.1,0.3,0c0.1-0.1,0.1-0.1,0.2-0.2c0.1-0.1,0.1-0.1,0.2-0.2c0-0.1,0.1-0.1,0.1-0.2
	l0.1-0.1c0-0.1,0.1-0.1,0.1-0.1c0,0,0.1-0.1,0.1-0.1c0.1,0,0.1,0,0.2,0c0.1,0,0.2,0,0.2,0.2s0,0.3,0.1,0.3c0.3,0.1,0.5-0.2,0.7-0.5
	c0,0,0-0.1,0.1-0.1c0,0,0.1-0.1,0.1-0.1s0-0.1,0-0.1c0.1-0.1,0.2-0.1,0.2-0.1h0.3c0.1,0,0.1-0.3,0.1-0.4c0-0.2,0.1-0.5,0.3-0.6
	c0.1,0,0.2-0.1,0.3-0.2c0.1-0.1,0.1-0.2,0-0.2c0,0,0,0,0,0l0,0l0,0l0,0l-0.1-0.1l-0.2-0.1l-0.1-0.1l-0.1-0.1l-0.1-0.1l-0.1-0.1"/>
<path class="st3" d="M48.5,87v-0.1c0,0,0-0.1,0-0.2v-0.1c0,0,0,0,0-0.1v0l0,0c-0.1,0-0.1,0-0.2-0.1c0,0-0.1,0-0.1-0.1
	c0,0-0.1,0.2-0.1,0.3c0,0.4,0,0.4-0.4,0.5c-0.1,0-0.3,0-0.1,0.2s0.1,0.1,0.2,0.1s0,0.1,0.1,0.1c0.1,0.1,0.1,0.1,0.2,0.2
	c0.1,0,0.2,0.1,0.2,0.1c0,0,0.1,0,0.1-0.1c0,0,0.1-0.1,0.1-0.2c0-0.1,0-0.1,0-0.2L48.5,87"/>
</svg>
